<?xml version="1.0" encoding="utf-8"?>
<!-- Generator: Adobe Illustrator 25.2.0, SVG Export Plug-In . SVG Version: 6.00 Build 0)  -->
<svg version="1.1" id="Layer_1" xmlns="http://www.w3.org/2000/svg" xmlns:xlink="http://www.w3.org/1999/xlink" x="0px" y="0px"
	 viewBox="0 0 2000 2000" style="enable-background:new 0 0 2000 2000;" xml:space="preserve">
<style type="text/css">
	.st0{font-family:'Montserrat-SemiBold';}
	.st1{font-size:149.9518px;}
	.st2{font-family:'Montserrat-Medium';}
	.st3{font-size:97.9525px;}
	.st4{fill:url(#SVGID_1_);}
	.st5{fill:#F07706;}
	.st6{fill:url(#SVGID_2_);}
	.st7{fill:url(#SVGID_3_);}
	.st8{fill:url(#SVGID_4_);}
</style>
<g>
	<g>
		<text transform="matrix(1 0 0 1 295.9072 1333.4089)" class="st0 st1">EVENT HORIZON</text>
		<text transform="matrix(1 0 0 1 610.9844 1448.7019)" class="st2 st3">PARTNERS</text>
	</g>
	<g>
		<linearGradient id="SVGID_1_" gradientUnits="userSpaceOnUse" x1="992.0074" y1="812.0973" x2="992.0074" y2="1186.9208">
			<stop  offset="0.0206" style="stop-color:#A91500"/>
			<stop  offset="0.2654" style="stop-color:#F07706"/>
			<stop  offset="0.332" style="stop-color:#FD8907"/>
			<stop  offset="0.5587" style="stop-color:#BB1801"/>
			<stop  offset="1" style="stop-color:#000000"/>
		</linearGradient>
		<path class="st4" d="M1167.69,1024.23c-14.89,16.14-32.02,30.18-50.78,41.64c-37.58,23.05-80.63,35.22-124.51,35.22h-0.89
			c-43.82,0-86.87-12.18-124.49-35.26c-18.68-11.38-35.79-25.44-50.82-41.75c-12.16-12.9-23.14-27.77-32.64-44.18h-35.49
			c0.97,1.74,1.97,3.47,2.98,5.22c16.71,28.57,37.92,53.85,63.01,75.17c25,21.28,53.11,37.8,83.55,49.13
			c14.53,5.42,30.16,9.67,46.47,12.67c15.33,2.75,31.45,4.19,47.88,4.29c16.03-0.06,32.19-1.48,47.89-4.25
			c16.18-2.96,31.85-7.25,46.53-12.69c30.54-11.36,58.65-27.88,83.56-49.09c25.08-21.34,46.26-46.64,62.99-75.21
			c1.02-1.75,2.01-3.49,3-5.24h-35.51C1190.98,996.25,1180,1011.14,1167.69,1024.23z"/>
		<path class="st5" d="M988.28,1053.45c4.34,0.46,11.59,0.46,15.88,0c58.06-5.18,104.57-28.28,138.33-68.63
			c5.71-6.81,10.98-14.07,15.74-21.66h-9.14c-3.85,5.79-8.04,11.42-12.5,16.71c-30.1,36.02-71.04,57.76-121.62,64.62
			c-12.42,1.67-25.02,1.69-37.44,0c-50.57-6.85-91.48-28.59-121.61-64.61c-4.42-5.29-8.61-10.91-12.5-16.73h-9.12
			c4.78,7.61,10.05,14.85,15.72,21.62C883.77,1025.15,930.28,1048.25,988.28,1053.45z"/>
		<linearGradient id="SVGID_2_" gradientUnits="userSpaceOnUse" x1="561.6374" y1="866.4844" x2="1437.2041" y2="866.4844">
			<stop  offset="0.0206" style="stop-color:#A91500"/>
			<stop  offset="0.3827" style="stop-color:#F07706"/>
			<stop  offset="0.5503" style="stop-color:#FD8907"/>
			<stop  offset="0.8565" style="stop-color:#BB1801"/>
		</linearGradient>
		<path class="st6" d="M1433.01,908.3c4.19-0.15,5.76-5.57,2.28-7.92c-8.63-5.82-20.59-13.04-26.51-15.49
			c-9.41-3.79-19.12-7.11-28.95-10.17c-4.93-1.52-9.88-2.98-14.87-4.36l-7.61-2.16c-2.58-0.72-5.16-1.48-7.7-2.31
			c-10.26-3.21-20.43-6.94-30.35-11.44c-20.57-9.11-39.72-22.45-55.66-38.11l9.28,20.6c4.08,9.03,3.32,19.35-2.03,27.6
			c-10.09,15.65-32.4,21.34-95.43,24.39c-42.87,2.09-101.2,2.5-175.61,2.5c-1.32,0-2.61,0-3.92,0.01c-1.31,0-2.6-0.01-3.92-0.01
			c-74.41,0-132.74-0.42-175.61-2.5c-63.03-3.05-85.34-8.74-95.43-24.39c-5.35-8.25-6.11-18.57-2.03-27.6l9.33-20.73
			c-5.65,4.68-37.4,30.13-55.7,38.23c-9.92,4.5-20.09,8.23-30.35,11.44c-2.54,0.83-5.12,1.59-7.7,2.31l-7.61,2.16
			c-4.99,1.38-9.94,2.85-14.87,4.36c-9.83,3.05-19.54,6.37-28.95,10.17c-4,1.65-11.23,6.1-18.2,10.66
			c-5.86,3.83-3.35,12.93,3.65,13.2c58.58,2.25,118.8,4,182.54,5.32c40.59,0.83,81.13,1.5,120.49,1.95
			c44.67,0.47,84.09,0.7,120.47,0.74c1.29,0,2.6,0,3.9-0.01c1.3,0,2.61,0,3.9,0.01c36.38-0.04,75.8-0.27,120.47-0.74
			c39.36-0.46,79.89-1.12,120.49-1.95C1299.37,912.85,1398.68,909.49,1433.01,908.3z"/>
		<path class="st5" d="M1191.53,840.44c-0.78-2.67-1.4-5.41-1.84-8.06c-1.4-8.06-10.01-50.27-43.11-89.81
			c-31.75-38.01-74.91-60.74-128.23-67.55c-5.54-0.7-11.57-1.06-18.08-1.06c-1.47,0-2.91,0.02-4.32,0.06
			c-1.42-0.04-2.85-0.06-4.32-0.06c-6.51,0-12.54,0.36-18.08,1.06c-53.32,6.81-96.47,29.53-128.23,67.55
			c-33.1,39.55-41.71,81.75-43.11,89.81c-0.44,2.66-1.06,5.39-1.84,8.06l-0.7,2.45h8.02l0.38-1.42c0.66-2.48,1.21-5.03,1.69-7.76
			c1.37-7.76,9.75-48.33,41.43-86.21c19.99-23.9,44.94-41.65,74.19-52.77c22.63-8.61,46.49-12.59,70.26-12.07v0.01
			c0.11,0,0.22,0,0.32,0c0.11,0,0.22,0,0.32,0v-0.01c23.77-0.52,47.62,3.46,70.26,12.07c29.25,11.12,54.19,28.87,74.19,52.77
			c31.68,37.88,40.06,78.45,41.43,86.21c0.47,2.73,1.02,5.27,1.69,7.76l0.38,1.42h8.02L1191.53,840.44z"/>
		<linearGradient id="SVGID_3_" gradientUnits="userSpaceOnUse" x1="999.8726" y1="333.3556" x2="999.8726" y2="793.1083">
			<stop  offset="0.0206" style="stop-color:#A91500"/>
			<stop  offset="0.2654" style="stop-color:#F07706"/>
			<stop  offset="0.4497" style="stop-color:#FD8907"/>
			<stop  offset="0.8565" style="stop-color:#BB1801"/>
		</linearGradient>
		<path class="st7" d="M1691.77,871.18c-6.04-3.59-13.49-6.03-20.88-8.4c-14.93-4.69-30.48-8.55-46-12.46l-46.7-11.63
			c-15.55-3.95-31.13-7.7-46.83-12.23c-15.63-4.5-31.11-9.65-46.32-15.57c-15.21-5.94-30.16-12.65-44.67-20.2
			c-14.55-7.53-28.59-15.97-42.19-25.06c-27.18-18.17-52.31-39.02-76.21-60.79c-23.94-21.78-46.76-44.52-69.44-67.28l-16.96-17.01
			c-2.83-2.71-5.56-5.48-8.44-8.14c-2.9-2.6-5.77-5.27-8.71-7.83c-11.8-10.22-24.32-19.59-37.46-28
			c-26.25-16.81-54.99-29.69-85-38.24c-30.05-8.52-61.21-12.78-92.51-12.78c-2.5-0.01-5,0.03-7.51,0.08
			c-2.5-0.05-5.01-0.09-7.51-0.08c-31.3,0-62.46,4.27-92.51,12.78c-30.01,8.55-58.74,21.43-85,38.24
			c-13.15,8.4-25.66,17.77-37.46,28c-2.94,2.56-5.8,5.24-8.71,7.83c-2.88,2.66-5.61,5.42-8.44,8.14l-16.96,17.01
			c-22.69,22.76-45.51,45.5-69.44,67.28c-23.9,21.78-49.03,42.62-76.21,60.79c-13.6,9.09-27.64,17.53-42.19,25.06
			c-14.51,7.55-65.88,29.38-81.51,33.88c-15.71,4.53-31.28,10.19-46.83,14.13l-46.7,11.63c-15.52,3.91-31.07,7.78-46,12.46
			c-7.4,2.37-14.74,4.99-20.88,8.4c-3.05,1.71-5.67,3.64-7.45,5.77c-1.8,2.11-2.85,4.44-3.41,7.47c-0.18,0.95-0.3,4.68-0.38,7.68
			c-0.05,2.12,1.61,3.87,3.73,3.91c11.81,0.22,48.27,0.06,70.05,1.64c0,0,2.06-3.37,2.06-3.37c2.48-4.23,6.01-7.36,9.37-9.69
			c3.41-2.35,6.85-4.13,10.24-5.71c6.79-3.13,13.52-5.52,20.26-7.81c6.73-2.28,13.47-4.34,20.18-6.39
			c13.43-4.04,26.86-7.91,40.29-11.67c13.41-3.79,56.83-19.69,69.6-24.64c25.55-9.83,49.92-22.19,72.57-37.33
			c22.7-15.08,43.61-32.89,63.6-51.86c19.99-18.99,39.19-39.02,58.31-59.24l14.28-15.23l7.13-7.63c2.39-2.54,4.95-5.14,7.42-7.72
			c10.05-10.2,20.77-19.8,32.11-28.6c22.67-17.66,47.88-32.13,74.62-42.75c26.76-10.55,55.01-17.36,83.63-20.09
			c7.15-0.68,14.34-1.12,21.53-1.33c5.46-0.13,10.84-0.13,16.27-0.05v0c0.11,0,0.22,0,0.32,0c0.11,0,0.21,0,0.32,0v0
			c5.42-0.08,10.81-0.08,16.27,0.05c7.19,0.21,14.38,0.64,21.53,1.33c28.62,2.73,56.87,9.54,83.63,20.09
			c26.75,10.62,51.95,25.09,74.62,42.75c11.34,8.8,22.06,18.4,32.11,28.6c2.47,2.58,5.03,5.18,7.42,7.72l7.13,7.63l14.28,15.23
			c19.12,20.22,38.32,40.25,58.31,59.24c19.99,18.97,40.9,36.78,63.6,51.86c22.65,15.14,47.02,27.5,72.57,37.33
			c12.77,4.95,25.8,9.33,38.98,13.26c13.13,3.89,26.69,7.59,40.1,11.38c13.43,3.76,26.86,7.63,40.29,11.67
			c6.71,2.05,13.45,4.12,20.18,6.39c6.73,2.3,13.47,4.69,20.26,7.81c3.4,1.57,6.83,3.36,10.24,5.71c3.36,2.33,4.51,9.05,9.37,9.69
			c39.98,5.26,72.38-2.83,72.63-3.02C1702.43,889.3,1703,877.85,1691.77,871.18z"/>
		<linearGradient id="SVGID_4_" gradientUnits="userSpaceOnUse" x1="978.3491" y1="370.994" x2="998.832" y2="835.2743">
			<stop  offset="0.0206" style="stop-color:#A91500"/>
			<stop  offset="0.2654" style="stop-color:#F07706"/>
			<stop  offset="0.4497" style="stop-color:#FD8907"/>
			<stop  offset="0.8565" style="stop-color:#BB1801"/>
		</linearGradient>
		<path class="st8" d="M1566.54,879.56c-13.32-3.77-26.78-7.34-40.23-11c-13.47-3.68-26.86-7.13-40.48-11.08
			c-13.56-3.96-30.82-8.38-44.1-13.43c-26.56-10.02-52.29-22.86-76.14-38.56c-23.9-15.65-45.71-34.03-66.29-53.28
			c-20.6-19.25-40.08-39.45-59.29-59.73l-14.38-15.25l-7.15-7.63c-2.39-2.54-4.74-4.89-7.11-7.36
			c-9.52-9.62-19.65-18.65-30.35-26.92c-21.38-16.56-45.05-30.06-70.16-39.97c-25.13-9.83-51.67-16.14-78.57-18.65
			c-6.73-0.63-13.47-1.02-20.24-1.19c-5.32-0.12-10.74-0.1-16.1-0.02c-5.36-0.08-10.78-0.1-16.1,0.02
			c-6.77,0.17-13.51,0.57-20.24,1.19c-26.9,2.5-53.43,8.82-78.57,18.65c-25.11,9.9-48.79,23.41-70.16,39.97
			c-10.7,8.27-20.83,17.3-30.35,26.92c-2.37,2.47-4.72,4.82-7.11,7.36l-7.15,7.63l-14.38,15.25
			c-19.21,20.28-38.69,40.48-59.29,59.73c-20.58,19.25-34.81,37.63-58.71,53.28c-23.84,15.71-49.58,28.55-76.14,38.56
			c-13.28,5.05-26.75,9.47-40.31,13.43c-13.62,3.95-27.01,7.4-40.48,11.08c-13.45,3.66-26.92,7.23-40.23,11
			c-6.66,1.9-46.97,16.86-49.62,19.29c3.5,0.25,144.03,8.08,150.66,8.35c0.03-0.1,13.23-17.35,17.83-20.75
			c9.24-6.81,19.1-11.65,29-16.01c9.94-4.27,20.01-7.89,30.16-11.15c5.07-1.65,10.15-3.21,15.23-4.69l7.47-2.2
			c2.47-0.72,4.91-1.48,7.32-2.3c9.71-3.13,19.22-6.73,28.34-10.96c18.32-8.38,27.09-19.82,41.54-33.93
			c14.51-14.04,27.64-30.2,41.12-46.24c13.41-16.1,27.16-32.15,41.39-47.76c1.42-1.56,2.86-3.09,4.34-4.63
			c0.02-0.04,0.06-0.08,0.08-0.09c1.92-2.2,3.89-4.38,5.88-6.56c48.33-52.73,110.41-79.46,184.52-79.46c1.21,0,2.41,0.02,3.62,0.04
			v0.01c0.11,0,0.22,0,0.32,0c0.11,0,0.22,0,0.32,0v-0.01c1.2-0.02,2.4-0.04,3.62-0.04c74.11,0,136.19,26.73,184.52,79.46
			c1.99,2.18,3.96,4.36,5.88,6.56c0.02,0.02,0.06,0.06,0.07,0.09c1.48,1.54,2.92,3.07,4.34,4.63
			c14.23,15.61,27.98,31.66,41.39,47.76c13.49,16.05,26.61,32.21,41.12,46.24c14.45,14.11,30.8,25.55,49.13,33.93
			c9.12,4.23,18.63,7.83,28.34,10.96c2.41,0.82,4.85,1.57,7.32,2.3l7.47,2.2c5.08,1.48,10.17,3.04,15.23,4.69
			c10.15,3.26,20.22,6.89,30.16,11.15c9.9,4.36,23.56,9.2,32.8,16.01c0.16,0.12,0.34,0.26,0.52,0.42
			c14.97,12.56,33.8,19.55,53.31,18.55c32.8-1.68,111.16-6.32,114.66-6.56C1613.51,896.42,1573.2,881.46,1566.54,879.56z"/>
	</g>
</g>
</svg>
